<svg id="bold" height="512" viewBox="0 0 24 24" width="512" xmlns="http://www.w3.org/2000/svg"><path d="m19.5 16.5v4h.75c.138 0 .25-.112.25-.25v-3.737c-.02.005-.105-.013-.25-.013z"/><path d="m21.25 13h-7.5c-1.517 0-2.75 1.233-2.75 2.75v5.5c0 1.517 1.233 2.75 2.75 2.75h7.5c1.517 0 2.75-1.233 2.75-2.75v-5.5c0-1.517-1.233-2.75-2.75-2.75zm-4.25 4.5c0 .372-.119.716-.318 1 .199.284.318.628.318 1v.75c0 .965-.785 1.75-1.75 1.75h-1.5c-.414 0-.75-.336-.75-.75s.336-.75.75-.75h1.5c.138 0 .25-.112.25-.25v-.75c0-.138-.112-.25-.25-.25h-1.5c-.414 0-.75-.336-.75-.75s.336-.75.75-.75h1.5c.138 0 .25-.112.25-.25v-.75c0-.138-.112-.25-.25-.25h-1.5c-.414 0-.75-.336-.75-.75s.336-.75.75-.75h1.5c.965 0 1.75.785 1.75 1.75zm5 2.75c0 .965-.785 1.75-1.75 1.75h-1.5c-.414 0-.75-.336-.75-.75v-5.5c0-.414.336-.75.75-.75h1.5c1.292 0 1.75.808 1.75 1.5z"/><path d="m8.25 24h-7.5c-.414 0-.75-.336-.75-.75s.336-.75.75-.75h7.5c.414 0 .75.336.75.75s-.336.75-.75.75z"/><path d="m4.5 16.5c-.414 0-.75-.336-.75-.75v-9.25c0-.414.336-.75.75-.75s.75.336.75.75v9.25c0 .414-.336.75-.75.75z"/><path d="m4.5 15c-1.93 0-3.5 1.57-3.5 3.5v4.75c0 .414.336.75.75.75h5.5c.414 0 .75-.336.75-.75v-4.75c0-1.93-1.57-3.5-3.5-3.5zm0 4.75c-.552 0-1-.448-1-1s.448-1 1-1 1 .448 1 1-.448 1-1 1z"/><path d="m3.75 7h1.5c.965 0 1.75-.785 1.75-1.75v-1.5c0-.965-.785-1.75-1.75-1.75h-1.5c-.965 0-1.75.785-1.75 1.75v1.5c0 .965.785 1.75 1.75 1.75z"/><path d="m14.75 5.25h-8.25c-.414 0-.75-.336-.75-.75s.336-.75.75-.75h8.25c.414 0 .75.336.75.75s-.336.75-.75.75z"/><path d="m19.25 2h-3.5c-.965 0-1.75.785-1.75 1.75v2c0 .965.785 1.75 1.75 1.75h3.5c.965 0 1.75-.785 1.75-1.75v-2c0-.965-.785-1.75-1.75-1.75z"/><path d="m23.25 5.25h-3c-.414 0-.75-.336-.75-.75s.336-.75.75-.75h3c.414 0 .75.336.75.75s-.336.75-.75.75z"/><path d="m18.25 9.5h-1.5c-.965 0-1.75-.785-1.75-1.75v-1c0-.414.336-.75.75-.75h3.5c.414 0 .75.336.75.75v1c0 .965-.785 1.75-1.75 1.75zm-1.75-2v.25c0 .138.112.25.25.25h1.5c.138 0 .25-.112.25-.25v-.25z"/><path d="m17.5 11c-.414 0-.75-.336-.75-.75v-1.5c0-.414.336-.75.75-.75s.75.336.75.75v1.5c0 .414-.336.75-.75.75z"/></svg>